# xmcd CD database file
#
# Track frame offsets:
#	150
#	31949
#	52016
#	70495
#	90306
#	106974
#	131414
#
# Disc length: 2053 seconds
#
# Revision: 0
# Processed by: cddbd v1.5.2PL0 Copyright (c) Steve Scherf et al.
# Submitted via: CDex 1.50
#
DISCID=57080307
DTITLE=Jan Lundgren Trio - Landscapes
DYEAR=2003
DGENRE=Jazz
TTITLE0=Joachim Uti Babylon
TTITLE1=People
TTITLE2=Avenue de Wagram
TTITLE3=You Say You Care
TTITLE4=Uti Var Hage
TTITLE5=A Touch Of You
TTITLE6=I Fall In Love Too Easily
EXTD=YEAR: 2003
EXTT0=
EXTT1=
EXTT2=
EXTT3=
EXTT4=
EXTT5=
EXTT6=
PLAYORDER=
